<svg id="Layer_2" data-name="Layer 2" xmlns="http://www.w3.org/2000/svg" viewBox="0 0 124.75 124.76"><title>global-perks-donut</title><g id="dd-perks-registration"><g id="Reg05_1-processingpayment" data-name="Reg05 1-processingpayment"><g id="Page-1"><g id="Group-3"><path id="Fill-1" d="M80.46,78.34a23.94,23.94,0,1,1-2.4-33.78,23.94,23.94,0,0,1,2.4,33.78M15.26,21.78a62.38,62.38,0,1,0,88-6.25,62.38,62.38,0,0,0-88,6.25" transform="translate(0 -0.27)" style="fill:#653600"/></g><path id="Fill-4" d="M83.47,80.95a27.93,27.93,0,1,1-2.8-39.4,27.93,27.93,0,0,1,2.8,39.4m34-26.14c3.89-8.76-3.91-8.52-6.79-15.08-1.87-4.25,1.18-8.81-.38-12.93-1.95-5.12-9.16-5.2-13.67-6.12-6-1.23-6.93-8.84-12.51-10.61C78.35,8.24,73.52,14,67.9,14.13c-5.82.13-10.11-5-15.81-5.45a9.23,9.23,0,0,0-1.76,0,7,7,0,0,0-1.76.1C43.65,9.76,42.42,14,39,17c-4.55,3.92-9.67-.79-14.15,2.56-3.49,2.6-3.3,8-4.08,11.85-1,5.11-6.35,6.24-9.14,10-5.2,7,4.26,16.33.57,24.68-1.9,4.3-5.11,8.56-3.06,13.4,1.66,3.93,7.09,4.65,9.28,8.16,2.52,4-.82,8.6.62,12.76,1.26,3.61,5,4.7,8.41,5.13,3.2,0.4,5.55.64,7.72,3.16,2.51,2.91,2.62,5.87,7.12,6.62,10.39,1.72,11.2-3,17.27-2.77,6.7,0.28,12.7,8.38,19.48,4.72,3.82-2.06,4.46-7.14,8.06-9.37,5.15-3.18,11,2.79,16-.78,4-2.88,3-7.41,4-11.66,1.3-5.57,5.78-6.59,9-10.71,3.82-4.84,0-9.27-1.73-14-2.2-5.88.75-10.64,3.08-15.87" transform="translate(0 -0.27)" style="fill:#ed4699"/><path id="Fill-6" d="M94.48,47.63a1.72,1.72,0,0,1,1.45-3.13l10.78,5a1.72,1.72,0,0,1-1.45,3.13Z" transform="translate(0 -0.27)" style="fill:#f5811f"/><path id="Fill-8" d="M96.22,62.44A1.72,1.72,0,0,1,96.36,59l11.88,0.49a1.72,1.72,0,1,1-.14,3.45Z" transform="translate(0 -0.27)" style="fill:#fefefe"/><path id="Fill-10" d="M18.36,47.14a1.72,1.72,0,1,1,1.84-2.91l10.06,6.32a1.73,1.73,0,0,1-1.84,2.92Z" transform="translate(0 -0.27)" style="fill:#fefefe"/><path id="Fill-12" d="M98.23,73.46a1.47,1.47,0,0,1,2.62-1.35l4.65,9a1.47,1.47,0,1,1-2.62,1.35Z" transform="translate(0 -0.27)" style="fill:#f5811f"/><path id="Fill-14" d="M32.87,35.46a1.72,1.72,0,1,1-3.44,0L29.5,23.55a1.73,1.73,0,0,1,3.45,0Z" transform="translate(0 -0.27)" style="fill:#f5811f"/><path id="Fill-16" d="M16.71,67a1.72,1.72,0,0,1-.66-3.38l11.66-2.29a1.72,1.72,0,1,1,.67,3.38Z" transform="translate(0 -0.27)" style="fill:#f5811f"/><path id="Fill-18" d="M24.72,78.67a1.14,1.14,0,1,1-1.89-1.29l4.44-6.54a1.15,1.15,0,1,1,1.9,1.29Z" transform="translate(0 -0.27)" style="fill:#fefefe"/><path id="Fill-20" d="M104.5,41.13a1,1,0,1,1-1.93.63l-2.17-6.67a1,1,0,1,1,1.93-.63Z" transform="translate(0 -0.27)" style="fill:#fefefe"/><path id="Fill-22" d="M85.6,26a1.72,1.72,0,0,1-2.72,2.12l-7.31-9.37a1.72,1.72,0,1,1,2.71-2.12Z" transform="translate(0 -0.27)" style="fill:#f5811f"/><path id="Fill-24" d="M61.62,101a1.2,1.2,0,0,1-1.54-1.85l6.38-5.3A1.2,1.2,0,1,1,68,95.67Z" transform="translate(0 -0.27)" style="fill:#fefefe"/><path id="Fill-26" d="M85.91,87.71a1.2,1.2,0,0,1-.13-2.4l8.29-.44a1.2,1.2,0,1,1,.13,2.4Z" transform="translate(0 -0.27)" style="fill:#fefefe"/><path id="Fill-28" d="M44.46,34.42a1.44,1.44,0,0,1-2.8.67l-2.32-9.68a1.45,1.45,0,0,1,2.81-.67Z" transform="translate(0 -0.27)" style="fill:#fefefe"/><path id="Fill-30" d="M88.47,41.93a1.72,1.72,0,1,1-3-1.73l5.95-10.28a1.73,1.73,0,1,1,3,1.73Z" transform="translate(0 -0.27)" style="fill:#fefefe"/><path id="Fill-32" d="M64.82,25.88A1.72,1.72,0,0,1,66.65,23l10.06,6.33a1.72,1.72,0,1,1-1.84,2.92Z" transform="translate(0 -0.27)" style="fill:#fefefe"/><path id="Fill-34" d="M57.33,26.35A1.38,1.38,0,1,1,54.95,25l4.77-8.25a1.38,1.38,0,1,1,2.39,1.38Z" transform="translate(0 -0.27)" style="fill:#f5811f"/><path id="Fill-36" d="M66.88,108.56a1.24,1.24,0,0,1-2.15-1.24L69,99.92a1.24,1.24,0,1,1,2.15,1.24Z" transform="translate(0 -0.27)" style="fill:#f5811f"/><path id="Fill-38" d="M49.74,95A1.73,1.73,0,0,1,47,97.15l-7.31-9.37a1.72,1.72,0,1,1,2.72-2.12Z" transform="translate(0 -0.27)" style="fill:#f5811f"/><path id="Fill-40" d="M35.87,101.18a1.72,1.72,0,1,1,1.84-2.91l10.06,6.32a1.72,1.72,0,1,1-1.84,2.92Z" transform="translate(0 -0.27)" style="fill:#fefefe"/><path id="Fill-42" d="M76.82,95.72a1.72,1.72,0,1,1,1.84-2.91l10.06,6.33A1.72,1.72,0,1,1,86.88,102Z" transform="translate(0 -0.27)" style="fill:#fefefe"/><path id="Fill-44" d="M27.53,95.93a1.73,1.73,0,0,1-3-1.73l6-10.29a1.73,1.73,0,0,1,3,1.73Z" transform="translate(0 -0.27)" style="fill:#f5811f"/></g></g></g></svg>